<svg width="94" height="50" viewBox="0 0 94 50" fill="none" xmlns="http://www.w3.org/2000/svg">
<path d="M0 39.3243V10.1351H5.51351V34.1757H18.0811V39.3243H0Z" fill="white"/>
<path d="M31.379 39.9324C29.1763 39.9324 27.2439 39.4392 25.5817 38.4527C23.9195 37.4662 22.6223 36.1081 21.6898 34.3784C20.7709 32.6351 20.3114 30.6351 20.3114 28.3784C20.3114 26.0946 20.7844 24.0878 21.7304 22.3581C22.6763 20.6149 23.9804 19.2568 25.6425 18.2838C27.3047 17.3108 29.2169 16.8243 31.379 16.8243C33.5817 16.8243 35.5141 17.3176 37.1763 18.3041C38.852 19.2905 40.156 20.6554 41.0885 22.3986C42.0209 24.1284 42.4871 26.1216 42.4871 28.3784C42.4871 30.6486 42.0141 32.6554 41.0682 34.3986C40.1358 36.1284 38.8317 37.4865 37.156 38.473C35.4939 39.4459 33.5682 39.9324 31.379 39.9324ZM31.379 34.7838C33.1493 34.7838 34.4668 34.1892 35.3317 33C36.2101 31.7973 36.6493 30.2568 36.6493 28.3784C36.6493 26.4324 36.2033 24.8784 35.3114 23.7162C34.4331 22.5541 33.1223 21.973 31.379 21.973C30.1763 21.973 29.1898 22.2432 28.4196 22.7838C27.6493 23.3243 27.075 24.0743 26.6966 25.0338C26.3317 25.9932 26.1493 27.1081 26.1493 28.3784C26.1493 30.3378 26.5885 31.8986 27.4668 33.0608C28.3587 34.2095 29.6628 34.7838 31.379 34.7838Z" fill="white"/>
<path d="M56.3095 49.6622C55.0663 49.6622 53.8839 49.4595 52.7622 49.0541C51.6406 48.6622 50.6339 48.1081 49.742 47.3919C48.8636 46.6892 48.1474 45.8649 47.5933 44.9189L52.7014 42.4459C53.0528 43.0946 53.5528 43.5878 54.2014 43.9257C54.8636 44.2635 55.5798 44.4324 56.3501 44.4324C57.1744 44.4324 57.9514 44.2905 58.6812 44.0068C59.4109 43.7365 59.992 43.3243 60.4244 42.7703C60.8703 42.2297 61.0798 41.5541 61.0528 40.7432V34.3784H61.742V17.4324H66.5663V40.8243C66.5663 41.3649 66.5393 41.8716 66.4852 42.3446C66.4447 42.8311 66.3636 43.3108 66.242 43.7838C65.8906 45.1216 65.2352 46.223 64.2758 47.0878C63.3298 47.9527 62.1677 48.5946 60.7893 49.0135C59.4109 49.4459 57.9177 49.6622 56.3095 49.6622ZM55.8231 39.9324C53.8095 39.9324 52.046 39.4257 50.5325 38.4122C49.019 37.3986 47.8366 36.0203 46.9852 34.277C46.1474 32.5338 45.7285 30.5676 45.7285 28.3784C45.7285 26.1486 46.1541 24.1689 47.0055 22.4392C47.8704 20.6959 49.0798 19.3243 50.6339 18.3243C52.1879 17.3243 54.0122 16.8243 56.1068 16.8243C58.1879 16.8243 59.9379 17.3311 61.3568 18.3446C62.7758 19.3581 63.8501 20.7365 64.5798 22.4797C65.3095 24.223 65.6744 26.1892 65.6744 28.3784C65.6744 30.5676 65.3028 32.5338 64.5595 34.277C63.8298 36.0203 62.7352 37.3986 61.2758 38.4122C59.8163 39.4257 57.9987 39.9324 55.8231 39.9324ZM56.715 35.027C57.9447 35.027 58.9244 34.75 59.6541 34.1959C60.3974 33.6419 60.9312 32.8649 61.2555 31.8649C61.5798 30.8649 61.742 29.7027 61.742 28.3784C61.742 27.0541 61.5798 25.8919 61.2555 24.8919C60.9312 23.8919 60.4109 23.1149 59.6947 22.5608C58.992 22.0068 58.0663 21.7297 56.9177 21.7297C55.6879 21.7297 54.6744 22.0338 53.8771 22.6419C53.0933 23.2365 52.5122 24.0405 52.1339 25.0541C51.7555 26.0541 51.5663 27.1622 51.5663 28.3784C51.5663 29.6081 51.7487 30.7297 52.1136 31.7432C52.4785 32.7432 53.0393 33.5405 53.796 34.1351C54.5528 34.7297 55.5258 35.027 56.715 35.027Z" fill="white"/>
<path d="M82.0943 39.9324C79.8916 39.9324 77.9591 39.4392 76.297 38.4527C74.6348 37.4662 73.3375 36.1081 72.4051 34.3784C71.4862 32.6351 71.0267 30.6351 71.0267 28.3784C71.0267 26.0946 71.4997 24.0878 72.4456 22.3581C73.3916 20.6149 74.6956 19.2568 76.3578 18.2838C78.02 17.3108 79.9321 16.8243 82.0943 16.8243C84.297 16.8243 86.2294 17.3176 87.8916 18.3041C89.5672 19.2905 90.8713 20.6554 91.8037 22.3986C92.7362 24.1284 93.2024 26.1216 93.2024 28.3784C93.2024 30.6486 92.7294 32.6554 91.7835 34.3986C90.851 36.1284 89.547 37.4865 87.8713 38.473C86.2091 39.4459 84.2835 39.9324 82.0943 39.9324ZM82.0943 34.7838C83.8645 34.7838 85.1821 34.1892 86.047 33C86.9254 31.7973 87.3645 30.2568 87.3645 28.3784C87.3645 26.4324 86.9186 24.8784 86.0267 23.7162C85.1483 22.5541 83.8375 21.973 82.0943 21.973C80.8916 21.973 79.9051 22.2432 79.1348 22.7838C78.3645 23.3243 77.7902 24.0743 77.4118 25.0338C77.047 25.9932 76.8645 27.1081 76.8645 28.3784C76.8645 30.3378 77.3037 31.8986 78.1821 33.0608C79.074 34.2095 80.3781 34.7838 82.0943 34.7838Z" fill="white"/>
</svg>
